Coordinates
version=1
nRows=8
nColumns=36
inDegrees=yes

Units are S.I. units (second, meters, Newtons, ...)
If the header above contains a line with 'inDegrees', this indicates whether rotational values are in degrees (yes) or radians (no).

endheader
time	pelvis_tilt	pelvis_list	pelvis_rotation	pelvis_tx	pelvis_ty	pelvis_tz	hip_flexion_r	hip_adduction_r	hip_rotation_r	knee_angle_r	knee_angle_r_beta	ankle_angle_r	subtalar_angle_r	mtp_angle_r	hip_flexion_l	hip_adduction_l	hip_rotation_l	knee_angle_l	knee_angle_l_beta	ankle_angle_l	subtalar_angle_l	mtp_angle_l	lumbar_extension	lumbar_bending	lumbar_rotation	arm_flex_r	arm_add_r	arm_rot_r	elbow_flex_r	pro_sup_r	arm_flex_l	arm_add_l	arm_rot_l	elbow_flex_l	pro_sup_l
      0.81000000	    -13.31379895	      1.01827013	      4.91986837	     -0.78182709	      1.16209366	     -0.58816930	     23.85924864	      0.57626011	      0.82715216	     59.23403305	      1.03382891	     -6.85656902	    -19.38740243	     -5.57469530	     24.18963063	     -3.06927701	     -2.79913016	     57.60103416	      1.00532770	     -5.15494118	     -4.93625218	     -5.57469530	    -11.26588491	     -4.14184863	      0.29154482	      4.53618369	    -30.98683889	     -9.46827991	    134.26616339	    105.79260070	     44.41962698	    -32.28343604	     36.29570797	    110.42148835	    104.29764493
      0.82000000	    -12.91243899	      0.96554466	      4.80272528	     -0.76863155	      1.16748009	     -0.58851993	     24.42769507	      0.08319303	     -0.06875134	     60.30462747	      1.05251430	     -9.96156337	    -20.17960879	     -5.65157635	     23.99443308	     -3.53979240	     -3.09524945	     57.70307447	      1.00710864	     -9.05921480	     -5.79517875	     -5.65157635	    -11.13561958	     -3.98619816	      0.80465447	      1.37245802	    -32.38549724	    -11.88903681	    136.00218672	    106.44582033	     43.99942270	    -33.70771459	     36.89467888	    111.91571159	    104.79293161
      0.83000000	    -12.51742054	      0.92036057	      4.65426497	     -0.75573211	      1.17173116	     -0.58897429	     25.10199934	     -0.44259786	     -1.05439392	     61.68793852	      1.07665764	     -9.66749892	    -22.14115332	     -5.82425798	     23.83930656	     -3.94614296	     -3.40786628	     58.10530785	      1.01412893	     -9.18014663	     -7.26044269	     -5.82425798	    -11.20278030	     -3.90570187	      2.48724294	     -3.85732398	    -33.66517446	    -16.67829958	    138.31563231	    107.69559144	     45.19665606	    -34.40761586	     39.42611642	    112.33023644	    105.16223764
      0.84000000	    -12.38291874	      0.85928553	      4.54128830	     -0.74344457	      1.17468320	     -0.58954237	     26.24228473	     -0.96881068	     -1.94005862	     63.23233275	      1.10361240	     -7.77688762	    -24.22943874	     -5.84931006	     24.15695100	     -4.24309443	     -3.50589983	     58.82176532	      1.02663348	     -6.94499842	     -8.96951519	     -5.84931006	    -11.08510384	     -3.64440075	      2.49763746	     -6.73058319	    -34.92586611	    -18.51287909	    139.40164019	    107.82267378	     44.26237114	    -36.81066826	     39.49288579	    114.32292490	    105.30990986
      0.85000000	    -12.36641981	      0.77271729	      4.43767465	     -0.73219607	      1.17610322	     -0.58975956	     27.81145791	     -1.29766376	     -2.41426004	     64.88540383	      1.13246393	     -8.09274921	    -27.60195675	     -5.99946980	     24.92508833	     -4.54698484	     -3.38145927	     59.82315700	      1.04411106	     -5.50815262	    -10.97632899	     -5.99946980	    -11.14382824	     -3.47186393	      4.60392912	    -13.23825088	    -35.30065739	    -25.40504577	    141.71277184	    108.45962809	     46.09966127	    -37.34566057	     42.31968162	    114.27952282	    104.67394732
      0.86000000	    -12.48882233	      0.70705795	      4.37774914	     -0.72081634	      1.17675119	     -0.59005399	     29.46764195	     -1.78410109	     -2.94409342	     66.14708932	      1.15448450	     -7.77880938	    -28.75432136	     -6.01459467	     25.81547727	     -4.86587680	     -3.35478462	     60.39621553	      1.05411282	     -5.31090567	    -11.95133105	     -6.01459467	    -10.99715853	     -3.21586866	      4.47826316	    -16.46394018	    -36.27917759	    -27.14425071	    141.92677174	    108.44789545	     45.17622653	    -39.99927367	     42.37768473	    116.17958284	    104.79091257
      0.87000000	    -12.65195596	      0.64413808	      4.31021075	     -0.71018713	      1.17605783	     -0.59025830	     31.30029645	     -2.07769199	     -3.03908888	     67.29244806	      1.17447478	     -8.52398946	    -30.53664474	     -6.18493365	     26.97164564	     -5.06083789	     -3.14892233	     61.05783329	      1.06566023	     -7.01833311	    -14.32357284	     -6.18493365	    -11.14125607	     -2.97860261	      7.05586625	    -23.95930338	    -35.01986745	    -35.39602133	    143.72374026	    108.93462439	     47.53159290	    -40.14012209	     45.59910277	    115.34511884	    103.79500377
      0.88000000	    -12.57719756	      0.52312243	      4.31295164	     -0.69971449	      1.17494972	     -0.59062161	     32.79013269	     -2.25599731	     -2.99381368	     67.93823714	      1.18574593	     -7.72629950	    -30.52262027	     -6.28833880	     27.92498544	     -5.22470785	     -2.69294216	     61.58185732	      1.07480617	     -7.66370607	    -15.26037791	     -6.28833880	    -11.60485026	     -2.55748274	      7.80599218	    -28.43723297	    -34.50473575	    -39.95286443	    144.17077950	    109.05187684	     47.75997546	    -42.06393745	     46.54397793	    116.00255447	    103.37679316
